<svg width="134" height="18" viewBox="0 0 134 18" fill="none" xmlns="http://www.w3.org/2000/svg">
<path d="M9.36 3.2C6.384 3.2 3.96 5.624 3.96 8.6C3.96 11.576 6.384 14 9.36 14H17.76V17H9.36C4.728 17 0.96 13.232 0.96 8.6C0.96 3.968 4.728 0.199999 9.36 0.199999H17.76V3.2H9.36ZM26.9063 0.199999C31.5383 0.199999 35.3063 3.968 35.3063 8.6C35.3063 13.232 31.5383 17 26.9063 17C22.2743 17 18.5063 13.232 18.5063 8.6C18.5063 3.968 22.2743 0.199999 26.9063 0.199999ZM26.9063 14C29.8823 14 32.3063 11.576 32.3063 8.6C32.3063 5.624 29.8823 3.2 26.9063 3.2C23.9303 3.2 21.5063 5.624 21.5063 8.6C21.5063 11.576 23.9303 14 26.9063 14ZM37.1063 0.199999L45.4823 0.223999C50.1143 0.223999 53.8823 3.968 53.8823 8.6C53.8823 10.664 53.1383 12.56 51.8903 14.024C51.7463 14.192 51.5783 14.36 51.4103 14.528C49.8983 16.064 47.8103 17 45.5063 17H37.1063V0.199999ZM40.0823 3.224V14.024H45.4823C48.4583 14.024 50.8823 11.6 50.8823 8.624C50.8823 5.648 48.4583 3.224 45.4823 3.224H40.0823ZM60.8376 3.2C59.9976 3.2 59.3016 3.896 59.3016 4.736V6.296H70.1016V9.296H59.3016V12.464C59.3016 13.304 59.9976 14 60.8376 14H73.1016V17H60.8376C58.3416 17 56.3256 14.96 56.3256 12.464V4.736C56.3256 2.24 58.3416 0.199999 60.8376 0.199999H73.1016V3.2H60.8376ZM91.3849 4.832L88.3849 4.856V4.76C88.3849 3.92 87.6889 3.224 86.8489 3.224H80.0329C79.1929 3.224 78.4969 3.92 78.4969 4.76V4.856C78.4969 5.696 79.1929 6.392 80.0329 6.392H86.0809C87.6409 6.392 89.0329 7.064 89.9929 8.12C90.0649 8.192 90.1129 8.264 90.1849 8.336C90.9289 9.248 91.3849 10.424 91.3849 11.696C91.3849 14.624 89.0089 17 86.0809 17H80.8249C77.8969 17 75.5209 14.624 75.5209 11.696H78.5209C78.5209 12.968 79.5529 14 80.8249 14H86.0809C87.3529 14 88.4089 12.968 88.4089 11.696C88.4089 10.424 87.3529 9.392 86.0809 9.392H80.0329C78.8089 9.392 77.7049 8.912 76.8889 8.12C76.6729 7.904 76.4809 7.664 76.3129 7.4C75.8089 6.68 75.5209 5.792 75.5209 4.832V4.736C75.5209 2.24 77.5369 0.199999 80.0329 0.199999H86.8489C89.3449 0.199999 91.3849 2.24 91.3849 4.736V4.832ZM107.578 0.199999L110.578 0.223999V17.024L107.578 14.72L96.7781 6.392V17.024H93.7781V0.271999L96.7781 2.576L107.578 10.904V0.199999ZM115.973 17H112.973V0.199999H115.973V17ZM132.164 1.52L132.188 1.568C133.004 2.384 133.508 3.512 133.508 4.76C133.508 6.584 132.428 8.168 130.868 8.888C130.46 9.08 130.028 9.2 129.572 9.248C129.524 9.248 129.476 9.248 129.428 9.248V9.272H121.388V17H118.388V0.199999H128.972C130.22 0.199999 131.348 0.704 132.164 1.52ZM129.62 6.176V6.152C130.172 5.912 130.532 5.36 130.532 4.76C130.532 4.208 130.244 3.824 130.076 3.656C129.884 3.464 129.524 3.224 128.996 3.224H121.388V6.32H128.996C129.212 6.32 129.428 6.272 129.62 6.176Z" fill="white"/>
</svg>
